{
  "accessors": [
    {
      "bufferView": 2,
      "componentType": 5126,
      "count": 65532,
      "max": [
        44.0171012878418,
        43.54750061035156,
        41.10090255737305
      ],
      "min": [
        -44.0171012878418,
        -44.047401428222656,
        17.940898895263672
      ],
      "type": "VEC3"
    },
    {
      "bufferView": 2,
      "byteOffset": 786384,
      "componentType": 5126,
      "count": 65532,
      "max": [
        0.999999463558197,
        0.9999995231628418,
        1.0
      ],
      "min": [
        -0.9999989867210388,
        -0.999999463558197,
        -1.0
      ],
      "type": "VEC3"
    },
    {
      "bufferView": 3,
      "componentType": 5126,
      "count": 65532,
      "max": [
        1.0,
        1.0,
        0.9999986290931702,
        1.0
      ],
      "min": [
        -1.0,
        -1.0,
        -1.0,
        -1.0
      ],
      "type": "VEC4"
    },
    {
      "bufferView": 1,
      "componentType": 5126,
      "count": 65532,
      "max": [
        0.9996700286865234,
        0.9996690154075623
      ],
      "min": [
        0.00033000000985339284,
        0.00033099998836405575
      ],
      "type": "VEC2"
    },
    {
      "bufferView": 1,
      "byteOffset": 524256,
      "componentType": 5126,
      "count": 65532,
      "max": [
        0.9996700286865234,
        0.9996690154075623
      ],
      "min": [
        0.00033000000985339284,
        0.00033099998836405575
      ],
      "type": "VEC2"
    },
    {
      "bufferView": 1,
      "byteOffset": 1048512,
      "componentType": 5126,
      "count": 65532,
      "max": [
        0.9996700286865234,
        0.9996690154075623
      ],
      "min": [
        0.00033000000985339284,
        0.00033099998836405575
      ],
      "type": "VEC2"
    },
    {
      "bufferView": 0,
      "componentType": 5125,
      "count": 283371,
      "type": "SCALAR"
    },
    {
      "bufferView": 2,
      "byteOffset": 1572768,
      "componentType": 5126,
      "count": 65532,
      "max": [
        40.2599983215332,
        43.54750061035156,
        41.10090255737305
      ],
      "min": [
        -19.91160011291504,
        -43.32149887084961,
        -5.1458001136779785
      ],
      "type": "VEC3"
    },
    {
      "bufferView": 2,
      "byteOffset": 2359152,
      "componentType": 5126,
      "count": 65532,
      "max": [
        0.9999998807907104,
        0.9999997615814209,
        0.9999911189079285
      ],
      "min": [
        -0.9999998807907104,
        -0.9999997615814209,
        -0.9999998211860657
      ],
      "type": "VEC3"
    },
    {
      "bufferView": 3,
      "byteOffset": 1048512,
      "componentType": 5126,
      "count": 65532,
      "max": [
        1.0,
        1.0,
        0.9999997019767761,
        1.0
      ],
      "min": [
        -1.0,
        -1.0,
        -0.999999463558197,
        -1.0
      ],
      "type": "VEC4"
    },
    {
      "bufferView": 1,
      "byteOffset": 1572768,
      "componentType": 5126,
      "count": 65532,
      "max": [
        0.9996700286865234,
        0.9996690154075623
      ],
      "min": [
        0.00033000000985339284,
        0.00033099998836405575
      ],
      "type": "VEC2"
    },
    {
      "bufferView": 1,
      "byteOffset": 2097024,
      "componentType": 5126,
      "count": 65532,
      "max": [
        0.9996700286865234,
        0.9996690154075623
      ],
      "min": [
        0.00033000000985339284,
        0.00033099998836405575
      ],
      "type": "VEC2"
    },
    {
      "bufferView": 1,
      "byteOffset": 2621280,
      "componentType": 5126,
      "count": 65532,
      "max": [
        0.9996700286865234,
        0.9996690154075623
      ],
      "min": [
        0.00033000000985339284,
        0.00033099998836405575
      ],
      "type": "VEC2"
    },
    {
      "bufferView": 0,
      "byteOffset": 1133484,
      "componentType": 5125,
      "count": 292020,
      "type": "SCALAR"
    },
    {
      "bufferView": 2,
      "byteOffset": 3145536,
      "componentType": 5126,
      "count": 65532,
      "max": [
        20.055801391601563,
        40.562400817871094,
        40.2859001159668
      ],
      "min": [
        -43.98480224609375,
        -42.83319854736328,
        -40.65420150756836
      ],
      "type": "VEC3"
    },
    {
      "bufferView": 2,
      "byteOffset": 3931920,
      "componentType": 5126,
      "count": 65532,
      "max": [
        0.9999982118606567,
        1.0,
        0.9997284412384033
      ],
      "min": [
        -0.9999998807907104,
        -0.9999993443489075,
        -0.9999995231628418
      ],
      "type": "VEC3"
    },
    {
      "bufferView": 3,
      "byteOffset": 2097024,
      "componentType": 5126,
      "count": 65532,
      "max": [
        1.0,
        1.0,
        0.9999998807907104,
        1.0
      ],
      "min": [
        -1.0,
        -1.0,
        -1.0,
        -1.0
      ],
      "type": "VEC4"
    },
    {
      "bufferView": 1,
      "byteOffset": 3145536,
      "componentType": 5126,
      "count": 65532,
      "max": [
        0.9996700286865234,
        0.9996690154075623
      ],
      "min": [
        0.00033000000985339284,
        0.00033099998836405575
      ],
      "type": "VEC2"
    },
    {
      "bufferView": 1,
      "byteOffset": 3669792,
      "componentType": 5126,
      "count": 65532,
      "max": [
        0.9996700286865234,
        0.9996690154075623
      ],
      "min": [
        0.00033000000985339284,
        0.00033099998836405575
      ],
      "type": "VEC2"
    },
    {
      "bufferView": 1,
      "byteOffset": 4194048,
      "componentType": 5126,
      "count": 65532,
      "max": [
        0.9996700286865234,
        0.9996690154075623
      ],
      "min": [
        0.00033000000985339284,
        0.00033099998836405575
      ],
      "type": "VEC2"
    },
    {
      "bufferView": 0,
      "byteOffset": 2301564,
      "componentType": 5125,
      "count": 288225,
      "type": "SCALAR"
    },
    {
      "bufferView": 2,
      "byteOffset": 4718304,
      "componentType": 5126,
      "count": 65532,
      "max": [
        -3.847299814224243,
        24.886600494384766,
        39.99789810180664
      ],
      "min": [
        -43.06209945678711,
        -40.866600036621094,
        -28.003498077392578
      ],
      "type": "VEC3"
    },
    {
      "bufferView": 2,
      "byteOffset": 5504688,
      "componentType": 5126,
      "count": 65532,
      "max": [
        0.9999975562095642,
        0.9999963045120239,
        0.9998394846916199
      ],
      "min": [
        -0.9999985694885254,
        -0.9999979138374329,
        -0.9999997019767761
      ],
      "type": "VEC3"
    },
    {
      "bufferView": 3,
      "byteOffset": 3145536,
      "componentType": 5126,
      "count": 65532,
      "max": [
        0.9999998807907104,
        1.0,
        1.0,
        1.0
      ],
      "min": [
        -1.0,
        -1.0,
        -0.9999998211860657,
        -1.0
      ],
      "type": "VEC4"
    },
    {
      "bufferView": 1,
      "byteOffset": 4718304,
      "componentType": 5126,
      "count": 65532,
      "max": [
        0.9996700286865234,
        0.9996690154075623
      ],
      "min": [
        0.00033000000985339284,
        0.00033099998836405575
      ],
      "type": "VEC2"
    },
    {
      "bufferView": 1,
      "byteOffset": 5242560,
      "componentType": 5126,
      "count": 65532,
      "max": [
        0.9996700286865234,
        0.9996690154075623
      ],
      "min": [
        0.00033000000985339284,
        0.00033099998836405575
      ],
      "type": "VEC2"
    },
    {
      "bufferView": 1,
      "byteOffset": 5766816,
      "componentType": 5126,
      "count": 65532,
      "max": [
        0.9996700286865234,
        0.9996690154075623
      ],
      "min": [
        0.00033000000985339284,
        0.00033099998836405575
      ],
      "type": "VEC2"
    },
    {
      "bufferView": 0,
      "byteOffset": 3454464,
      "componentType": 5125,
      "count": 271893,
      "type": "SCALAR"
    },
    {
      "bufferView": 2,
      "byteOffset": 6291072,
      "componentType": 5126,
      "count": 65532,
      "max": [
        25.694501876831055,
        43.1078987121582,
        40.04240036010742
      ],
      "min": [
        -36.578800201416016,
        -29.468101501464844,
        -29.00279998779297
      ],
      "type": "VEC3"
    },
    {
      "bufferView": 2,
      "byteOffset": 7077456,
      "componentType": 5126,
      "count": 65532,
      "max": [
        0.999998152256012,
        0.999999463558197,
        0.9999536275863647
      ],
      "min": [
        -0.9999996423721313,
        -0.9999984502792358,
        -0.9999999403953552
      ],
      "type": "VEC3"
    },
    {
      "bufferView": 3,
      "byteOffset": 4194048,
      "componentType": 5126,
      "count": 65532,
      "max": [
        1.0,
        1.0,
        0.9999995231628418,
        1.0
      ],
      "min": [
        -1.0,
        -0.9999998807907104,
        -0.9999997615814209,
        -1.0
      ],
      "type": "VEC4"
    },
    {
      "bufferView": 1,
      "byteOffset": 6291072,
      "componentType": 5126,
      "count": 65532,
      "max": [
        0.9996700286865234,
        0.9996690154075623
      ],
      "min": [
        0.00033000000985339284,
        0.00033099998836405575
      ],
      "type": "VEC2"
    },
    {
      "bufferView": 1,
      "byteOffset": 6815328,
      "componentType": 5126,
      "count": 65532,
      "max": [
        0.9996700286865234,
        0.9996690154075623
      ],
      "min": [
        0.00033000000985339284,
        0.00033099998836405575
      ],
      "type": "VEC2"
    },
    {
      "bufferView": 1,
      "byteOffset": 7339584,
      "componentType": 5126,
      "count": 65532,
      "max": [
        0.9996700286865234,
        0.9996690154075623
      ],
      "min": [
        0.00033000000985339284,
        0.00033099998836405575
      ],
      "type": "VEC2"
    },
    {
      "bufferView": 0,
      "byteOffset": 4542036,
      "componentType": 5125,
      "count": 279519,
      "type": "SCALAR"
    },
    {
      "bufferView": 2,
      "byteOffset": 7863840,
      "componentType": 5126,
      "count": 20300,
      "max": [
        14.950299263000488,
        14.92300033569336,
        0.29190000891685486
      ],
      "min": [
        -13.05419921875,
        -20.409399032592773,
        -27.93920135498047
      ],
      "type": "VEC3"
    },
    {
      "bufferView": 2,
      "byteOffset": 8107440,
      "componentType": 5126,
      "count": 20300,
      "max": [
        0.9999991655349731,
        0.9999955892562866,
        0.9997681379318237
      ],
      "min": [
        -0.9999931454658508,
        -0.9999986886978149,
        -0.9999774694442749
      ],
      "type": "VEC3"
    },
    {
      "bufferView": 3,
      "byteOffset": 5242560,
      "componentType": 5126,
      "count": 20300,
      "max": [
        0.9999997019767761,
        0.9999809861183167,
        0.9999855160713196,
        1.0
      ],
      "min": [
        -0.9999992847442627,
        -0.9999998807907104,
        -0.9999825954437256,
        -1.0
      ],
      "type": "VEC4"
    },
    {
      "bufferView": 1,
      "byteOffset": 7863840,
      "componentType": 5126,
      "count": 20300,
      "max": [
        0.9996700286865234,
        0.9996690154075623
      ],
      "min": [
        0.00033000000985339284,
        0.00033099998836405575
      ],
      "type": "VEC2"
    },
    {
      "bufferView": 1,
      "byteOffset": 8026240,
      "componentType": 5126,
      "count": 20300,
      "max": [
        0.9996700286865234,
        0.9996690154075623
      ],
      "min": [
        0.00033000000985339284,
        0.00033099998836405575
      ],
      "type": "VEC2"
    },
    {
      "bufferView": 1,
      "byteOffset": 8188640,
      "componentType": 5126,
      "count": 20300,
      "max": [
        0.9996700286865234,
        0.9996690154075623
      ],
      "min": [
        0.00033000000985339284,
        0.00033099998836405575
      ],
      "type": "VEC2"
    },
    {
      "bufferView": 0,
      "byteOffset": 5660112,
      "componentType": 5125,
      "count": 84780,
      "type": "SCALAR"
    }
  ],
  "asset": {
    "extras": {
      "author": "alterego.visual (https://sketchfab.com/alterego.visual)",
      "license": "CC-BY-4.0 (http://creativecommons.org/licenses/by/4.0/)",
      "source": "https://sketchfab.com/3d-models/candi-prambanan-2707fac7e21a4f76b73a02997a3d1d97",
      "title": "Candi Prambanan"
    },
    "generator": "Sketchfab-16.73.0",
    "version": "2.0"
  },
  "bufferViews": [
    {
      "buffer": 0,
      "byteLength": 5999232,
      "name": "floatBufferViews",
      "target": 34963
    },
    {
      "buffer": 0,
      "byteLength": 8351040,
      "byteOffset": 5999232,
      "byteStride": 8,
      "name": "floatBufferViews",
      "target": 34962
    },
    {
      "buffer": 0,
      "byteLength": 8351040,
      "byteOffset": 14350272,
      "byteStride": 12,
      "name": "floatBufferViews",
      "target": 34962
    },
    {
      "buffer": 0,
      "byteLength": 5567360,
      "byteOffset": 22701312,
      "byteStride": 16,
      "name": "floatBufferViews",
      "target": 34962
    }
  ],
  "buffers": [
    {
      "byteLength": 28268672,
      "uri": "scene.bin"
    }
  ],
  "images": [
    {
      "uri": "textures/Material.002_baseColor.png"
    },
    {
      "uri": "textures/Material.002_metallicRoughness.png"
    },
    {
      "uri": "textures/Material.002_normal.png"
    }
  ],
  "materials": [
    {
      "doubleSided": true,
      "name": "Material.002",
      "normalTexture": {
        "index": 2,
        "texCoord": 1
      },
      "pbrMetallicRoughness": {
        "baseColorTexture": {
          "index": 0
        },
        "metallicRoughnessTexture": {
          "index": 1
        }
      }
    }
  ],
  "meshes": [
    {
      "name": "texture_pbr_v128_Material.002_0",
      "primitives": [
        {
          "attributes": {
            "NORMAL": 1,
            "POSITION": 0,
            "TANGENT": 2,
            "TEXCOORD_0": 3,
            "TEXCOORD_1": 4,
            "TEXCOORD_2": 5
          },
          "indices": 6,
          "material": 0,
          "mode": 4
        }
      ]
    },
    {
      "name": "texture_pbr_v128_Material.002_0",
      "primitives": [
        {
          "attributes": {
            "NORMAL": 8,
            "POSITION": 7,
            "TANGENT": 9,
            "TEXCOORD_0": 10,
            "TEXCOORD_1": 11,
            "TEXCOORD_2": 12
          },
          "indices": 13,
          "material": 0,
          "mode": 4
        }
      ]
    },
    {
      "name": "texture_pbr_v128_Material.002_0",
      "primitives": [
        {
          "attributes": {
            "NORMAL": 15,
            "POSITION": 14,
            "TANGENT": 16,
            "TEXCOORD_0": 17,
            "TEXCOORD_1": 18,
            "TEXCOORD_2": 19
          },
          "indices": 20,
          "material": 0,
          "mode": 4
        }
      ]
    },
    {
      "name": "texture_pbr_v128_Material.002_0",
      "primitives": [
        {
          "attributes": {
            "NORMAL": 22,
            "POSITION": 21,
            "TANGENT": 23,
            "TEXCOORD_0": 24,
            "TEXCOORD_1": 25,
            "TEXCOORD_2": 26
          },
          "indices": 27,
          "material": 0,
          "mode": 4
        }
      ]
    },
    {
      "name": "texture_pbr_v128_Material.002_0",
      "primitives": [
        {
          "attributes": {
            "NORMAL": 29,
            "POSITION": 28,
            "TANGENT": 30,
            "TEXCOORD_0": 31,
            "TEXCOORD_1": 32,
            "TEXCOORD_2": 33
          },
          "indices": 34,
          "material": 0,
          "mode": 4
        }
      ]
    },
    {
      "name": "texture_pbr_v128_Material.002_0",
      "primitives": [
        {
          "attributes": {
            "NORMAL": 36,
            "POSITION": 35,
            "TANGENT": 37,
            "TEXCOORD_0": 38,
            "TEXCOORD_1": 39,
            "TEXCOORD_2": 40
          },
          "indices": 41,
          "material": 0,
          "mode": 4
        }
      ]
    }
  ],
  "nodes": [
    {
      "children": [
        1
      ],
      "matrix": [
        1.0,
        0.0,
        0.0,
        0.0,
        0.0,
        2.220446049250313e-16,
        -1.0,
        0.0,
        0.0,
        1.0,
        2.220446049250313e-16,
        0.0,
        0.0,
        0.0,
        0.0,
        1.0
      ],
      "name": "Sketchfab_model"
    },
    {
      "children": [
        2
      ],
      "matrix": [
        0.009999999776482582,
        0.0,
        0.0,
        0.0,
        0.0,
        0.0,
        0.009999999776482582,
        0.0,
        0.0,
        -0.009999999776482582,
        0.0,
        0.0,
        0.0,
        0.0,
        0.0,
        1.0
      ],
      "name": "cabfc0c117bd45b1a8a81a985e7194ef.fbx"
    },
    {
      "children": [
        3
      ],
      "name": "RootNode"
    },
    {
      "children": [
        4,
        5,
        6,
        7,
        8,
        9
      ],
      "matrix": [
        1.0,
        0.0,
        0.0,
        0.0,
        0.0,
        -4.371139006309477e-08,
        0.999999999999999,
        0.0,
        0.0,
        -0.999999999999999,
        -4.371139006309477e-08,
        0.0,
        0.0,
        0.0,
        0.0,
        1.0
      ],
      "name": "texture_pbr_v128"
    },
    {
      "mesh": 0,
      "name": "texture_pbr_v128_Material.002_0"
    },
    {
      "mesh": 1,
      "name": "texture_pbr_v128_Material.002_0"
    },
    {
      "mesh": 2,
      "name": "texture_pbr_v128_Material.002_0"
    },
    {
      "mesh": 3,
      "name": "texture_pbr_v128_Material.002_0"
    },
    {
      "mesh": 4,
      "name": "texture_pbr_v128_Material.002_0"
    },
    {
      "mesh": 5,
      "name": "texture_pbr_v128_Material.002_0"
    }
  ],
  "samplers": [
    {
      "magFilter": 9729,
      "minFilter": 9987,
      "wrapS": 10497,
      "wrapT": 10497
    }
  ],
  "scene": 0,
  "scenes": [
    {
      "name": "Sketchfab_Scene",
      "nodes": [
        0
      ]
    }
  ],
  "textures": [
    {
      "sampler": 0,
      "source": 0
    },
    {
      "sampler": 0,
      "source": 1
    },
    {
      "sampler": 0,
      "source": 2
    }
  ]
}
