{
  "accessors": [
    {
      "bufferView": 2,
      "componentType": 5126,
      "count": 65532,
      "max": [
        0.9516869783401489,
        0.13638299703598022,
        0.9519950151443481
      ],
      "min": [
        -0.9519950151443481,
        -0.3157069981098175,
        -0.9510660171508789
      ],
      "type": "VEC3"
    },
    {
      "bufferView": 2,
      "byteOffset": 786384,
      "componentType": 5126,
      "count": 65532,
      "max": [
        0.999998927116394,
        1.0,
        0.9999997615814209
      ],
      "min": [
        -0.9999970197677612,
        -1.0,
        -0.9999959468841553
      ],
      "type": "VEC3"
    },
    {
      "bufferView": 1,
      "componentType": 5126,
      "count": 65532,
      "max": [
        0.9945780038833618,
        0.9975370168685913
      ],
      "min": [
        0.0012209999840706587,
        0.0001519918441772461
      ],
      "type": "VEC2"
    },
    {
      "bufferView": 0,
      "componentType": 5125,
      "count": 335133,
      "type": "SCALAR"
    },
    {
      "bufferView": 2,
      "byteOffset": 1572768,
      "componentType": 5126,
      "count": 65532,
      "max": [
        0.9051730036735535,
        0.15966199338436127,
        0.9381120204925537
      ],
      "min": [
        -0.9519339799880981,
        -0.31145399808883667,
        -0.9517650008201599
      ],
      "type": "VEC3"
    },
    {
      "bufferView": 2,
      "byteOffset": 2359152,
      "componentType": 5126,
      "count": 65532,
      "max": [
        0.9999988079071045,
        1.0,
        0.9999919533729553
      ],
      "min": [
        -0.9999990463256836,
        -1.0,
        -0.999998927116394
      ],
      "type": "VEC3"
    },
    {
      "bufferView": 1,
      "byteOffset": 524256,
      "componentType": 5126,
      "count": 65532,
      "max": [
        0.9989709854125977,
        0.997406005859375
      ],
      "min": [
        0.004922000225633383,
        0.0018929839134216309
      ],
      "type": "VEC2"
    },
    {
      "bufferView": 0,
      "byteOffset": 1340532,
      "componentType": 5125,
      "count": 329949,
      "type": "SCALAR"
    },
    {
      "bufferView": 2,
      "byteOffset": 3145536,
      "componentType": 5126,
      "count": 65532,
      "max": [
        0.9380049705505371,
        0.3015359938144684,
        0.9345740079879761
      ],
      "min": [
        -0.9039469957351685,
        -0.3116840124130249,
        -0.9384689927101135
      ],
      "type": "VEC3"
    },
    {
      "bufferView": 2,
      "byteOffset": 3931920,
      "componentType": 5126,
      "count": 65532,
      "max": [
        0.9999967813491821,
        1.0,
        0.999999463558197
      ],
      "min": [
        -0.9999934434890747,
        -1.0,
        -0.9999992847442627
      ],
      "type": "VEC3"
    },
    {
      "bufferView": 1,
      "byteOffset": 1048512,
      "componentType": 5126,
      "count": 65532,
      "max": [
        0.9994230270385742,
        0.9983119964599609
      ],
      "min": [
        0.0011909999884665012,
        0.0005109906196594238
      ],
      "type": "VEC2"
    },
    {
      "bufferView": 0,
      "byteOffset": 2660328,
      "componentType": 5125,
      "count": 330315,
      "type": "SCALAR"
    },
    {
      "bufferView": 2,
      "byteOffset": 4718304,
      "componentType": 5126,
      "count": 65532,
      "max": [
        0.9404659867286682,
        0.26042500138282776,
        0.951960027217865
      ],
      "min": [
        -0.950069010257721,
        -0.31615498661994934,
        -0.938510000705719
      ],
      "type": "VEC3"
    },
    {
      "bufferView": 2,
      "byteOffset": 5504688,
      "componentType": 5126,
      "count": 65532,
      "max": [
        0.9999988079071045,
        1.0,
        0.9999996423721313
      ],
      "min": [
        -0.9999990463256836,
        -1.0,
        -0.999998927116394
      ],
      "type": "VEC3"
    },
    {
      "bufferView": 1,
      "byteOffset": 1572768,
      "componentType": 5126,
      "count": 65532,
      "max": [
        0.9993489980697632,
        0.9988150000572205
      ],
      "min": [
        0.003992000129073858,
        0.0022010207176208496
      ],
      "type": "VEC2"
    },
    {
      "bufferView": 0,
      "byteOffset": 3981588,
      "componentType": 5125,
      "count": 325101,
      "type": "SCALAR"
    },
    {
      "bufferView": 2,
      "byteOffset": 6291072,
      "componentType": 5126,
      "count": 65532,
      "max": [
        0.9380549788475037,
        0.25279501080513,
        0.9453120231628418
      ],
      "min": [
        -0.950223982334137,
        -0.31424498558044434,
        -0.8826460242271423
      ],
      "type": "VEC3"
    },
    {
      "bufferView": 2,
      "byteOffset": 7077456,
      "componentType": 5126,
      "count": 65532,
      "max": [
        0.9999971389770508,
        1.0,
        0.9999988079071045
      ],
      "min": [
        -0.9999984502792358,
        -0.9999994039535522,
        -0.999985933303833
      ],
      "type": "VEC3"
    },
    {
      "bufferView": 1,
      "byteOffset": 2097024,
      "componentType": 5126,
      "count": 65532,
      "max": [
        0.9999920129776001,
        0.9989740252494812
      ],
      "min": [
        0.001196000026538968,
        0.00017499923706054688
      ],
      "type": "VEC2"
    },
    {
      "bufferView": 0,
      "byteOffset": 5281992,
      "componentType": 5125,
      "count": 318396,
      "type": "SCALAR"
    },
    {
      "bufferView": 2,
      "byteOffset": 7863840,
      "componentType": 5126,
      "count": 65532,
      "max": [
        0.8738930225372314,
        0.1231670007109642,
        0.9519950151443481
      ],
      "min": [
        -0.9312210083007813,
        -0.3162829875946045,
        -0.931306004524231
      ],
      "type": "VEC3"
    },
    {
      "bufferView": 2,
      "byteOffset": 8650224,
      "componentType": 5126,
      "count": 65532,
      "max": [
        0.999998927116394,
        1.0,
        0.9999997615814209
      ],
      "min": [
        -0.9999966025352478,
        -1.0,
        -0.9999997615814209
      ],
      "type": "VEC3"
    },
    {
      "bufferView": 1,
      "byteOffset": 2621280,
      "componentType": 5126,
      "count": 65532,
      "max": [
        0.9999769926071167,
        0.9988939762115479
      ],
      "min": [
        0.0010849999962374568,
        6.198883056640625e-05
      ],
      "type": "VEC2"
    },
    {
      "bufferView": 0,
      "byteOffset": 6555576,
      "componentType": 5125,
      "count": 313680,
      "type": "SCALAR"
    },
    {
      "bufferView": 2,
      "byteOffset": 9436608,
      "componentType": 5126,
      "count": 65532,
      "max": [
        0.9380350112915039,
        0.22080299258232117,
        0.7446290254592896
      ],
      "min": [
        -0.9383190274238586,
        -0.3114530146121979,
        -0.3369140028953552
      ],
      "type": "VEC3"
    },
    {
      "bufferView": 2,
      "byteOffset": 10222992,
      "componentType": 5126,
      "count": 65532,
      "max": [
        0.9999933242797852,
        1.0,
        0.9999997615814209
      ],
      "min": [
        -0.9999642372131348,
        -1.0,
        -0.9999984502792358
      ],
      "type": "VEC3"
    },
    {
      "bufferView": 1,
      "byteOffset": 3145536,
      "componentType": 5126,
      "count": 65532,
      "max": [
        0.9998909831047058,
        0.9989849925041199
      ],
      "min": [
        0.0010319999419152737,
        0.00019502639770507813
      ],
      "type": "VEC2"
    },
    {
      "bufferView": 0,
      "byteOffset": 7810296,
      "componentType": 5125,
      "count": 301431,
      "type": "SCALAR"
    },
    {
      "bufferView": 2,
      "byteOffset": 11009376,
      "componentType": 5126,
      "count": 65532,
      "max": [
        0.9375619888305664,
        0.1236720010638237,
        -0.1796880066394806
      ],
      "min": [
        -0.9378550052642822,
        -0.31145501136779785,
        -0.7175289988517761
      ],
      "type": "VEC3"
    },
    {
      "bufferView": 2,
      "byteOffset": 11795760,
      "componentType": 5126,
      "count": 65532,
      "max": [
        0.9999990463256836,
        1.0,
        0.9999755620956421
      ],
      "min": [
        -0.9999954104423523,
        -1.0,
        -0.9999836683273315
      ],
      "type": "VEC3"
    },
    {
      "bufferView": 1,
      "byteOffset": 3669792,
      "componentType": 5126,
      "count": 65532,
      "max": [
        0.999888002872467,
        0.9989169836044312
      ],
      "min": [
        0.0010420000180602074,
        5.900859832763672e-05
      ],
      "type": "VEC2"
    },
    {
      "bufferView": 0,
      "byteOffset": 9016020,
      "componentType": 5125,
      "count": 298176,
      "type": "SCALAR"
    },
    {
      "bufferView": 2,
      "byteOffset": 12582144,
      "componentType": 5126,
      "count": 65534,
      "max": [
        0.9037489891052246,
        0.016666999086737633,
        -0.4873049855232239
      ],
      "min": [
        -0.9050869941711426,
        -0.31694701313972473,
        -0.9519590139389038
      ],
      "type": "VEC3"
    },
    {
      "bufferView": 2,
      "byteOffset": 13368552,
      "componentType": 5126,
      "count": 65534,
      "max": [
        0.9999860525131226,
        1.0,
        0.9999997615814209
      ],
      "min": [
        -0.9999973773956299,
        -1.0,
        -0.9999991655349731
      ],
      "type": "VEC3"
    },
    {
      "bufferView": 1,
      "byteOffset": 4194048,
      "componentType": 5126,
      "count": 65534,
      "max": [
        0.9999279975891113,
        0.9988870024681091
      ],
      "min": [
        0.0010789999505504966,
        7.987022399902344e-06
      ],
      "type": "VEC2"
    },
    {
      "bufferView": 0,
      "byteOffset": 10208724,
      "componentType": 5125,
      "count": 300033,
      "type": "SCALAR"
    },
    {
      "bufferView": 2,
      "byteOffset": 14154960,
      "componentType": 5126,
      "count": 65532,
      "max": [
        0.9513729810714722,
        0.3173219859600067,
        0.3234269917011261
      ],
      "min": [
        -0.9508680105209351,
        -0.3141309916973114,
        -0.5827940106391907
      ],
      "type": "VEC3"
    },
    {
      "bufferView": 2,
      "byteOffset": 14941344,
      "componentType": 5126,
      "count": 65532,
      "max": [
        0.999996542930603,
        0.9999997615814209,
        0.999995231628418
      ],
      "min": [
        -0.9999924898147583,
        -1.0,
        -0.999998927116394
      ],
      "type": "VEC3"
    },
    {
      "bufferView": 1,
      "byteOffset": 4718320,
      "componentType": 5126,
      "count": 65532,
      "max": [
        0.9999949932098389,
        0.9989070296287537
      ],
      "min": [
        0.0011520000407472253,
        5.698204040527344e-05
      ],
      "type": "VEC2"
    },
    {
      "bufferView": 0,
      "byteOffset": 11408856,
      "componentType": 5125,
      "count": 285921,
      "type": "SCALAR"
    },
    {
      "bufferView": 2,
      "byteOffset": 15727728,
      "componentType": 5126,
      "count": 65532,
      "max": [
        0.9380069971084595,
        0.12324699759483337,
        0.6254879832267761
      ],
      "min": [
        -0.9375860095024109,
        -0.3114500045776367,
        0.13378900289535522
      ],
      "type": "VEC3"
    },
    {
      "bufferView": 2,
      "byteOffset": 16514112,
      "componentType": 5126,
      "count": 65532,
      "max": [
        0.9999983310699463,
        1.0,
        0.9999897480010986
      ],
      "min": [
        -0.9999983310699463,
        -1.0,
        -0.9999948740005493
      ],
      "type": "VEC3"
    },
    {
      "bufferView": 1,
      "byteOffset": 5242576,
      "componentType": 5126,
      "count": 65532,
      "max": [
        0.999983012676239,
        0.9989169836044312
      ],
      "min": [
        0.0013689999468624592,
        1.6987323760986328e-05
      ],
      "type": "VEC2"
    },
    {
      "bufferView": 0,
      "byteOffset": 12552540,
      "componentType": 5125,
      "count": 305073,
      "type": "SCALAR"
    },
    {
      "bufferView": 2,
      "byteOffset": 17300496,
      "componentType": 5126,
      "count": 40089,
      "max": [
        0.9050689935684204,
        0.06564699858427048,
        0.6376950144767761
      ],
      "min": [
        -0.9032739996910095,
        -0.31144699454307556,
        0.45898398756980896
      ],
      "type": "VEC3"
    },
    {
      "bufferView": 2,
      "byteOffset": 17781564,
      "componentType": 5126,
      "count": 40089,
      "max": [
        0.9999983310699463,
        0.9999998807907104,
        0.999999463558197
      ],
      "min": [
        -0.9999872446060181,
        -0.9999998807907104,
        -0.999977707862854
      ],
      "type": "VEC3"
    },
    {
      "bufferView": 1,
      "byteOffset": 5766832,
      "componentType": 5126,
      "count": 40089,
      "max": [
        0.9999970197677612,
        0.9989529848098755
      ],
      "min": [
        0.001044000033289194,
        0.0005289912223815918
      ],
      "type": "VEC2"
    },
    {
      "bufferView": 0,
      "byteOffset": 13772832,
      "componentType": 5125,
      "count": 177771,
      "type": "SCALAR"
    }
  ],
  "asset": {
    "extras": {
      "author": "czepedas (https://sketchfab.com/czepedas)",
      "license": "CC-BY-4.0 (http://creativecommons.org/licenses/by/4.0/)",
      "source": "https://sketchfab.com/3d-models/borobudur-temple-complex-da47fe2900bc4e3b81fef8e6f10c4f5d",
      "title": "Borobudur Temple Complex"
    },
    "generator": "Sketchfab-16.75.0",
    "version": "2.0"
  },
  "bufferViews": [
    {
      "buffer": 0,
      "byteLength": 14483916,
      "name": "floatBufferViews",
      "target": 34963
    },
    {
      "buffer": 0,
      "byteLength": 6087544,
      "byteOffset": 14483916,
      "byteStride": 8,
      "name": "floatBufferViews",
      "target": 34962
    },
    {
      "buffer": 0,
      "byteLength": 18262632,
      "byteOffset": 20571460,
      "byteStride": 12,
      "name": "floatBufferViews",
      "target": 34962
    }
  ],
  "buffers": [
    {
      "byteLength": 38834092,
      "uri": "scene.bin"
    }
  ],
  "images": [
    {
      "uri": "textures/material_0_baseColor.jpeg"
    }
  ],
  "materials": [
    {
      "doubleSided": true,
      "name": "material_0",
      "pbrMetallicRoughness": {
        "baseColorTexture": {
          "index": 0
        },
        "metallicFactor": 0.0,
        "roughnessFactor": 0.8
      }
    }
  ],
  "meshes": [
    {
      "name": "Object_0",
      "primitives": [
        {
          "attributes": {
            "NORMAL": 1,
            "POSITION": 0,
            "TEXCOORD_0": 2
          },
          "indices": 3,
          "material": 0,
          "mode": 4
        }
      ]
    },
    {
      "name": "Object_1",
      "primitives": [
        {
          "attributes": {
            "NORMAL": 5,
            "POSITION": 4,
            "TEXCOORD_0": 6
          },
          "indices": 7,
          "material": 0,
          "mode": 4
        }
      ]
    },
    {
      "name": "Object_2",
      "primitives": [
        {
          "attributes": {
            "NORMAL": 9,
            "POSITION": 8,
            "TEXCOORD_0": 10
          },
          "indices": 11,
          "material": 0,
          "mode": 4
        }
      ]
    },
    {
      "name": "Object_3",
      "primitives": [
        {
          "attributes": {
            "NORMAL": 13,
            "POSITION": 12,
            "TEXCOORD_0": 14
          },
          "indices": 15,
          "material": 0,
          "mode": 4
        }
      ]
    },
    {
      "name": "Object_4",
      "primitives": [
        {
          "attributes": {
            "NORMAL": 17,
            "POSITION": 16,
            "TEXCOORD_0": 18
          },
          "indices": 19,
          "material": 0,
          "mode": 4
        }
      ]
    },
    {
      "name": "Object_5",
      "primitives": [
        {
          "attributes": {
            "NORMAL": 21,
            "POSITION": 20,
            "TEXCOORD_0": 22
          },
          "indices": 23,
          "material": 0,
          "mode": 4
        }
      ]
    },
    {
      "name": "Object_6",
      "primitives": [
        {
          "attributes": {
            "NORMAL": 25,
            "POSITION": 24,
            "TEXCOORD_0": 26
          },
          "indices": 27,
          "material": 0,
          "mode": 4
        }
      ]
    },
    {
      "name": "Object_7",
      "primitives": [
        {
          "attributes": {
            "NORMAL": 29,
            "POSITION": 28,
            "TEXCOORD_0": 30
          },
          "indices": 31,
          "material": 0,
          "mode": 4
        }
      ]
    },
    {
      "name": "Object_8",
      "primitives": [
        {
          "attributes": {
            "NORMAL": 33,
            "POSITION": 32,
            "TEXCOORD_0": 34
          },
          "indices": 35,
          "material": 0,
          "mode": 4
        }
      ]
    },
    {
      "name": "Object_9",
      "primitives": [
        {
          "attributes": {
            "NORMAL": 37,
            "POSITION": 36,
            "TEXCOORD_0": 38
          },
          "indices": 39,
          "material": 0,
          "mode": 4
        }
      ]
    },
    {
      "name": "Object_10",
      "primitives": [
        {
          "attributes": {
            "NORMAL": 41,
            "POSITION": 40,
            "TEXCOORD_0": 42
          },
          "indices": 43,
          "material": 0,
          "mode": 4
        }
      ]
    },
    {
      "name": "Object_11",
      "primitives": [
        {
          "attributes": {
            "NORMAL": 45,
            "POSITION": 44,
            "TEXCOORD_0": 46
          },
          "indices": 47,
          "material": 0,
          "mode": 4
        }
      ]
    }
  ],
  "nodes": [
    {
      "children": [
        1
      ],
      "matrix": [
        1.0,
        0.0,
        0.0,
        0.0,
        0.0,
        2.220446049250313e-16,
        -1.0,
        0.0,
        0.0,
        1.0,
        2.220446049250313e-16,
        0.0,
        0.0,
        0.0,
        0.0,
        1.0
      ],
      "name": "Sketchfab_model"
    },
    {
      "children": [
        2
      ],
      "name": "root"
    },
    {
      "children": [
        3
      ],
      "matrix": [
        1.0,
        0.0,
        0.0,
        0.0,
        0.0,
        2.220446049250313e-16,
        1.0,
        0.0,
        0.0,
        -1.0,
        2.220446049250313e-16,
        0.0,
        0.0,
        0.0,
        0.0,
        1.0
      ],
      "name": "GLTF_SceneRootNode"
    },
    {
      "children": [
        4,
        5,
        6,
        7,
        8,
        9,
        10,
        11,
        12,
        13,
        14,
        15
      ],
      "name": "_0"
    },
    {
      "mesh": 0,
      "name": "Object_4"
    },
    {
      "mesh": 1,
      "name": "Object_5"
    },
    {
      "mesh": 2,
      "name": "Object_6"
    },
    {
      "mesh": 3,
      "name": "Object_7"
    },
    {
      "mesh": 4,
      "name": "Object_8"
    },
    {
      "mesh": 5,
      "name": "Object_9"
    },
    {
      "mesh": 6,
      "name": "Object_10"
    },
    {
      "mesh": 7,
      "name": "Object_11"
    },
    {
      "mesh": 8,
      "name": "Object_12"
    },
    {
      "mesh": 9,
      "name": "Object_13"
    },
    {
      "mesh": 10,
      "name": "Object_14"
    },
    {
      "mesh": 11,
      "name": "Object_15"
    }
  ],
  "samplers": [
    {
      "magFilter": 9729,
      "minFilter": 9987,
      "wrapS": 10497,
      "wrapT": 10497
    }
  ],
  "scene": 0,
  "scenes": [
    {
      "name": "Sketchfab_Scene",
      "nodes": [
        0
      ]
    }
  ],
  "textures": [
    {
      "sampler": 0,
      "source": 0
    }
  ]
}
