{
  "accessors": [
    {
      "bufferView": 2,
      "componentType": 5126,
      "count": 65532,
      "max": [
        6.549787998199463,
        17.425195693969727,
        9.258066177368164
      ],
      "min": [
        -2.425036907196045,
        4.4264631271362305,
        -3.132891893386841
      ],
      "type": "VEC3"
    },
    {
      "bufferView": 2,
      "byteOffset": 786384,
      "componentType": 5126,
      "count": 65532,
      "max": [
        0.9999963641166687,
        0.9999988079071045,
        0.9999833703041077
      ],
      "min": [
        -0.9999904036521912,
        -0.9999834895133972,
        -0.9999962449073792
      ],
      "type": "VEC3"
    },
    {
      "bufferView": 1,
      "componentType": 5126,
      "count": 65532,
      "max": [
        0.9999759793281555,
        0.9994739890098572
      ],
      "min": [
        3.099999958067201e-05,
        0.0
      ],
      "type": "VEC2"
    },
    {
      "bufferView": 0,
      "componentType": 5125,
      "count": 212136,
      "type": "SCALAR"
    },
    {
      "bufferView": 2,
      "byteOffset": 1572768,
      "componentType": 5126,
      "count": 4344,
      "max": [
        3.1211130619049072,
        17.44649887084961,
        3.800671100616455
      ],
      "min": [
        -0.09709399938583374,
        11.300128936767578,
        -0.08496899902820587
      ],
      "type": "VEC3"
    },
    {
      "bufferView": 2,
      "byteOffset": 1624896,
      "componentType": 5126,
      "count": 4344,
      "max": [
        0.9997907280921936,
        0.998641312122345,
        0.9998275637626648
      ],
      "min": [
        -0.9999200701713562,
        -0.9986574053764343,
        -0.9996270537376404
      ],
      "type": "VEC3"
    },
    {
      "bufferView": 1,
      "byteOffset": 524256,
      "componentType": 5126,
      "count": 4344,
      "max": [
        0.9938669800758362,
        0.9994549751281738
      ],
      "min": [
        4.999999873689376e-06,
        0.00019299999985378236
      ],
      "type": "VEC2"
    },
    {
      "bufferView": 0,
      "byteOffset": 848544,
      "componentType": 5125,
      "count": 14244,
      "type": "SCALAR"
    }
  ],
  "asset": {
    "extras": {
      "author": "dekahobby (https://sketchfab.com/dekahobby)",
      "license": "CC-BY-4.0 (http://creativecommons.org/licenses/by/4.0/)",
      "source": "https://sketchfab.com/3d-models/candi-apit-be4a9fe23f5a483e8e79093565ea4155",
      "title": "Candi Apit"
    },
    "generator": "Sketchfab-15.23.0",
    "version": "2.0"
  },
  "bufferViews": [
    {
      "buffer": 0,
      "byteLength": 905520,
      "name": "floatBufferViews",
      "target": 34963
    },
    {
      "buffer": 0,
      "byteLength": 559008,
      "byteOffset": 905520,
      "byteStride": 8,
      "name": "floatBufferViews",
      "target": 34962
    },
    {
      "buffer": 0,
      "byteLength": 1677024,
      "byteOffset": 1464528,
      "byteStride": 12,
      "name": "floatBufferViews",
      "target": 34962
    }
  ],
  "buffers": [
    {
      "byteLength": 3141552,
      "uri": "scene.bin"
    }
  ],
  "extensionsUsed": [
    "KHR_materials_specular"
  ],
  "images": [
    {
      "uri": "textures/apit_baseColor.jpeg"
    },
    {
      "uri": "textures/apit_metallicRoughness.png"
    }
  ],
  "materials": [
    {
      "doubleSided": true,
      "extensions": {
        "KHR_materials_specular": {
          "specularColorFactor": [
            1.0,
            1.0,
            1.0
          ],
          "specularFactor": 0.49129061893491843
        }
      },
      "name": "apit",
      "occlusionTexture": {
        "index": 1
      },
      "pbrMetallicRoughness": {
        "baseColorTexture": {
          "index": 0
        },
        "metallicFactor": 0.0,
        "metallicRoughnessTexture": {
          "index": 1
        }
      }
    }
  ],
  "meshes": [
    {
      "name": "Object_0",
      "primitives": [
        {
          "attributes": {
            "NORMAL": 1,
            "POSITION": 0,
            "TEXCOORD_0": 2
          },
          "indices": 3,
          "material": 0,
          "mode": 4
        }
      ]
    },
    {
      "name": "Object_1",
      "primitives": [
        {
          "attributes": {
            "NORMAL": 5,
            "POSITION": 4,
            "TEXCOORD_0": 6
          },
          "indices": 7,
          "material": 0,
          "mode": 4
        }
      ]
    }
  ],
  "nodes": [
    {
      "children": [
        1
      ],
      "matrix": [
        0.9836803674697876,
        0.005369061138480942,
        -0.17984464764595032,
        0.0,
        -0.019906533882021904,
        0.9966657757759094,
        -0.07912666350603081,
        0.0,
        0.1788201779127121,
        0.08141542971134164,
        0.9805074334144592,
        0.0,
        0.0,
        0.0,
        0.0,
        1.0
      ],
      "name": "Sketchfab_model"
    },
    {
      "children": [
        2,
        3
      ],
      "name": "apit.obj.cleaner.materialmerger.gles"
    },
    {
      "mesh": 0,
      "name": "Object_2"
    },
    {
      "mesh": 1,
      "name": "Object_3"
    }
  ],
  "samplers": [
    {
      "magFilter": 9729,
      "minFilter": 9987,
      "wrapS": 10497,
      "wrapT": 10497
    }
  ],
  "scene": 0,
  "scenes": [
    {
      "name": "Sketchfab_Scene",
      "nodes": [
        0
      ]
    }
  ],
  "textures": [
    {
      "sampler": 0,
      "source": 0
    },
    {
      "sampler": 0,
      "source": 1
    }
  ]
}
